<svg width="217" height="52" viewBox="0 0 217 52" fill="none" xmlns="http://www.w3.org/2000/svg">
<rect x="0.599609" width="215.8" height="52" rx="26" fill="#F7F8FB"/>
<path d="M34.5169 31V21.2H38.3389C39.1975 21.2 39.9302 21.3353 40.5369 21.606C41.1435 21.8767 41.6102 22.2687 41.9369 22.782C42.2635 23.2953 42.4269 23.9067 42.4269 24.616C42.4269 25.3253 42.2635 25.9367 41.9369 26.45C41.6102 26.954 41.1435 27.346 40.5369 27.626C39.9302 27.8967 39.1975 28.032 38.3389 28.032H35.2869L35.9169 27.374V31H34.5169ZM35.9169 27.514L35.2869 26.814H38.2969C39.1929 26.814 39.8695 26.6227 40.3269 26.24C40.7935 25.8573 41.0269 25.316 41.0269 24.616C41.0269 23.916 40.7935 23.3747 40.3269 22.992C39.8695 22.6093 39.1929 22.418 38.2969 22.418H35.2869L35.9169 21.718V27.514ZM48.8253 31V29.432L48.7553 29.138V26.464C48.7553 25.8947 48.5873 25.456 48.2513 25.148C47.9246 24.8307 47.43 24.672 46.7673 24.672C46.3286 24.672 45.8993 24.7467 45.4793 24.896C45.0593 25.036 44.7046 25.2273 44.4153 25.47L43.8553 24.462C44.238 24.154 44.6953 23.9207 45.2273 23.762C45.7686 23.594 46.3333 23.51 46.9213 23.51C47.9386 23.51 48.7226 23.7573 49.2733 24.252C49.824 24.7467 50.0993 25.5027 50.0993 26.52V31H48.8253ZM46.3893 31.084C45.8386 31.084 45.3533 30.9907 44.9333 30.804C44.5226 30.6173 44.2053 30.3607 43.9813 30.034C43.7573 29.698 43.6453 29.32 43.6453 28.9C43.6453 28.4987 43.7386 28.1347 43.9253 27.808C44.1213 27.4813 44.434 27.22 44.8633 27.024C45.302 26.828 45.89 26.73 46.6273 26.73H48.9793V27.696H46.6833C46.0113 27.696 45.5586 27.808 45.3253 28.032C45.092 28.256 44.9753 28.5267 44.9753 28.844C44.9753 29.208 45.12 29.502 45.4093 29.726C45.6986 29.9407 46.1 30.048 46.6133 30.048C47.1173 30.048 47.556 29.936 47.9293 29.712C48.312 29.488 48.5873 29.1613 48.7553 28.732L49.0213 29.656C48.844 30.0947 48.5313 30.4447 48.0833 30.706C47.6353 30.958 47.0706 31.084 46.3893 31.084ZM55.8345 33.8C55.1532 33.8 54.4905 33.702 53.8465 33.506C53.2118 33.3193 52.6938 33.0487 52.2925 32.694L52.9365 31.658C53.2818 31.9567 53.7065 32.19 54.2105 32.358C54.7145 32.5353 55.2418 32.624 55.7925 32.624C56.6698 32.624 57.3138 32.4187 57.7245 32.008C58.1352 31.5973 58.3405 30.972 58.3405 30.132V28.564L58.4805 27.094L58.4105 25.61V23.58H59.6845V29.992C59.6845 31.2987 59.3578 32.26 58.7045 32.876C58.0512 33.492 57.0945 33.8 55.8345 33.8ZM55.6665 30.692C54.9478 30.692 54.3038 30.5427 53.7345 30.244C53.1745 29.936 52.7265 29.5113 52.3905 28.97C52.0638 28.4287 51.9005 27.8033 51.9005 27.094C51.9005 26.3753 52.0638 25.75 52.3905 25.218C52.7265 24.6767 53.1745 24.2567 53.7345 23.958C54.3038 23.6593 54.9478 23.51 55.6665 23.51C56.3012 23.51 56.8798 23.6407 57.4025 23.902C57.9252 24.154 58.3405 24.546 58.6485 25.078C58.9658 25.61 59.1245 26.282 59.1245 27.094C59.1245 27.8967 58.9658 28.564 58.6485 29.096C58.3405 29.628 57.9252 30.0293 57.4025 30.3C56.8798 30.5613 56.3012 30.692 55.6665 30.692ZM55.8205 29.516C56.3152 29.516 56.7538 29.4133 57.1365 29.208C57.5192 29.0027 57.8178 28.718 58.0325 28.354C58.2565 27.99 58.3685 27.57 58.3685 27.094C58.3685 26.618 58.2565 26.198 58.0325 25.834C57.8178 25.47 57.5192 25.19 57.1365 24.994C56.7538 24.7887 56.3152 24.686 55.8205 24.686C55.3258 24.686 54.8825 24.7887 54.4905 24.994C54.1078 25.19 53.8045 25.47 53.5805 25.834C53.3658 26.198 53.2585 26.618 53.2585 27.094C53.2585 27.57 53.3658 27.99 53.5805 28.354C53.8045 28.718 54.1078 29.0027 54.4905 29.208C54.8825 29.4133 55.3258 29.516 55.8205 29.516ZM66.8585 31V29.432L66.7885 29.138V26.464C66.7885 25.8947 66.6205 25.456 66.2845 25.148C65.9578 24.8307 65.4632 24.672 64.8005 24.672C64.3618 24.672 63.9325 24.7467 63.5125 24.896C63.0925 25.036 62.7378 25.2273 62.4485 25.47L61.8885 24.462C62.2712 24.154 62.7285 23.9207 63.2605 23.762C63.8018 23.594 64.3665 23.51 64.9545 23.51C65.9718 23.51 66.7558 23.7573 67.3065 24.252C67.8572 24.7467 68.1325 25.5027 68.1325 26.52V31H66.8585ZM64.4225 31.084C63.8718 31.084 63.3865 30.9907 62.9665 30.804C62.5558 30.6173 62.2385 30.3607 62.0145 30.034C61.7905 29.698 61.6785 29.32 61.6785 28.9C61.6785 28.4987 61.7718 28.1347 61.9585 27.808C62.1545 27.4813 62.4672 27.22 62.8965 27.024C63.3352 26.828 63.9232 26.73 64.6605 26.73H67.0125V27.696H64.7165C64.0445 27.696 63.5918 27.808 63.3585 28.032C63.1252 28.256 63.0085 28.5267 63.0085 28.844C63.0085 29.208 63.1532 29.502 63.4425 29.726C63.7318 29.9407 64.1332 30.048 64.6465 30.048C65.1505 30.048 65.5892 29.936 65.9625 29.712C66.3452 29.488 66.6205 29.1613 66.7885 28.732L67.0545 29.656C66.8772 30.0947 66.5645 30.4447 66.1165 30.706C65.6685 30.958 65.1038 31.084 64.4225 31.084ZM70.6197 31V23.58H71.9077V25.596L71.7817 25.092C71.987 24.5787 72.3324 24.1867 72.8177 23.916C73.303 23.6453 73.9004 23.51 74.6097 23.51V24.812C74.5537 24.8027 74.4977 24.798 74.4417 24.798C74.395 24.798 74.3484 24.798 74.3017 24.798C73.583 24.798 73.0137 25.0127 72.5937 25.442C72.1737 25.8713 71.9637 26.492 71.9637 27.304V31H70.6197ZM83.3557 31.084C82.5997 31.084 81.923 30.9207 81.3257 30.594C80.7377 30.2673 80.2757 29.8193 79.9397 29.25C79.6037 28.6807 79.4357 28.0273 79.4357 27.29C79.4357 26.5527 79.6037 25.8993 79.9397 25.33C80.2757 24.7607 80.7377 24.3173 81.3257 24C81.923 23.6733 82.5997 23.51 83.3557 23.51C84.0277 23.51 84.625 23.6453 85.1477 23.916C85.6797 24.1773 86.0903 24.5693 86.3797 25.092L85.3577 25.75C85.115 25.386 84.8163 25.12 84.4617 24.952C84.1163 24.7747 83.743 24.686 83.3417 24.686C82.8563 24.686 82.4223 24.7933 82.0397 25.008C81.657 25.2227 81.3537 25.526 81.1297 25.918C80.9057 26.3007 80.7937 26.758 80.7937 27.29C80.7937 27.822 80.9057 28.284 81.1297 28.676C81.3537 29.068 81.657 29.3713 82.0397 29.586C82.4223 29.8007 82.8563 29.908 83.3417 29.908C83.743 29.908 84.1163 29.824 84.4617 29.656C84.8163 29.4787 85.115 29.208 85.3577 28.844L86.3797 29.488C86.0903 30.0013 85.6797 30.398 85.1477 30.678C84.625 30.9487 84.0277 31.084 83.3557 31.084ZM91.1883 31.084C90.4417 31.084 89.779 30.9207 89.2003 30.594C88.6217 30.2673 88.1643 29.8193 87.8283 29.25C87.4923 28.6713 87.3243 28.018 87.3243 27.29C87.3243 26.5527 87.4923 25.8993 87.8283 25.33C88.1643 24.7607 88.6217 24.3173 89.2003 24C89.779 23.6733 90.4417 23.51 91.1883 23.51C91.9257 23.51 92.5837 23.6733 93.1623 24C93.7503 24.3173 94.2077 24.7607 94.5343 25.33C94.8703 25.89 95.0383 26.5433 95.0383 27.29C95.0383 28.0273 94.8703 28.6807 94.5343 29.25C94.2077 29.8193 93.7503 30.2673 93.1623 30.594C92.5837 30.9207 91.9257 31.084 91.1883 31.084ZM91.1883 29.908C91.6643 29.908 92.089 29.8007 92.4623 29.586C92.845 29.3713 93.1437 29.068 93.3583 28.676C93.573 28.2747 93.6803 27.8127 93.6803 27.29C93.6803 26.758 93.573 26.3007 93.3583 25.918C93.1437 25.526 92.845 25.2227 92.4623 25.008C92.089 24.7933 91.6643 24.686 91.1883 24.686C90.7123 24.686 90.2877 24.7933 89.9143 25.008C89.541 25.2227 89.2423 25.526 89.0183 25.918C88.7943 26.3007 88.6823 26.758 88.6823 27.29C88.6823 27.8127 88.7943 28.2747 89.0183 28.676C89.2423 29.068 89.541 29.3713 89.9143 29.586C90.2877 29.8007 90.7123 29.908 91.1883 29.908ZM100.859 23.51C101.466 23.51 101.998 23.6267 102.455 23.86C102.922 24.0933 103.286 24.448 103.547 24.924C103.808 25.4 103.939 26.002 103.939 26.73V31H102.595V26.884C102.595 26.1653 102.418 25.624 102.063 25.26C101.718 24.896 101.228 24.714 100.593 24.714C100.117 24.714 99.7017 24.8073 99.347 24.994C98.9924 25.1807 98.717 25.456 98.521 25.82C98.3344 26.184 98.241 26.6367 98.241 27.178V31H96.897V23.58H98.185V25.582L97.975 25.05C98.2177 24.5647 98.591 24.1867 99.095 23.916C99.599 23.6453 100.187 23.51 100.859 23.51Z" fill="#091144"/>
<path d="M131.701 29.5664H145.976C145.633 33.1701 142.563 35.9994 138.838 35.9994C135.112 35.9994 132.044 33.1701 131.7 29.5664H131.701ZM121.517 21.8245V35.9674C125.152 35.6273 128.009 32.5859 128.009 28.8957C128.009 25.2054 125.152 22.1652 121.517 21.8251V21.8245ZM138.838 21.7925C135.114 21.7925 132.044 24.623 131.701 28.2267H145.976C145.633 24.623 142.563 21.7925 138.838 21.7925H138.838ZM114.307 26.9546V36H120.121V16H114.307V26.9546ZM166.133 16V35.9994H171.947V16H166.133ZM158.287 28.8962C158.287 29.3454 158.331 29.7838 158.412 30.2099C158.996 33.2851 161.586 35.6682 164.78 35.9668V21.8245C161.144 22.1646 158.287 25.206 158.287 28.8962H158.287ZM148.917 35.9994H154.731V16H148.917V35.9994Z" fill="url(#paint0_linear_8079_101966)"/>
<defs>
<linearGradient id="paint0_linear_8079_101966" x1="171.947" y1="26" x2="114.307" y2="26" gradientUnits="userSpaceOnUse">
<stop offset="0.045" stop-color="#EE424E"/>
<stop offset="0.8" stop-color="#121E6C"/>
</linearGradient>
</defs>
</svg>
