<svg width="32" height="32" viewBox="0 0 32 32" fill="none" xmlns="http://www.w3.org/2000/svg">
<g id="illustration/ill_image">
<g id="Vector">
<path d="M28.12 4.16675H3.935C2.59019 4.16675 1.5 5.25693 1.5 6.60175V25.5084C1.5 26.8532 2.59019 27.9434 3.935 27.9434H28.12C29.4648 27.9434 30.555 26.8532 30.555 25.5084V6.60175C30.555 5.25693 29.4648 4.16675 28.12 4.16675Z" fill="#EFF0F4"/>
<path d="M17.965 17.5234C17.965 17.5234 15.6767 15.4251 13.8333 13.9634C11.99 12.5017 9.82833 13.9634 9.82833 13.9634L1.5 20.1934V25.5084C1.5 26.8534 2.59 27.9434 3.935 27.9434H28.12C29.465 27.9434 30.555 26.8534 30.555 25.5084V12.5001C30.555 12.5001 23.0533 16.6967 21.145 17.8401C19.2383 18.9851 17.9667 17.5217 17.9667 17.5217L17.965 17.5234Z" fill="#9499BB"/>
<path d="M20.8567 14.1717C22.8449 14.1717 24.4567 12.56 24.4567 10.5717C24.4567 8.58352 22.8449 6.97175 20.8567 6.97175C18.8684 6.97175 17.2567 8.58352 17.2567 10.5717C17.2567 12.56 18.8684 14.1717 20.8567 14.1717Z" fill="#D0D2DF"/>
</g>
</g>
</svg>
