<svg width="24" height="24" viewBox="0 0 24 24" fill="none" xmlns="http://www.w3.org/2000/svg">
<g id="icon/ic_trash">
<g id="Vector">
<path fill-rule="evenodd" clip-rule="evenodd" d="M18.9069 4.77566C19.1826 4.79051 19.3941 5.02608 19.3793 5.30182L18.5293 21.0909C18.4751 22.1296 17.6126 22.9349 16.58 22.9349H7.36002C6.32263 22.9349 5.46443 22.1153 5.41069 21.0809L4.62064 5.29994C4.60684 5.02414 4.81922 4.78937 5.09502 4.77557C5.37082 4.76176 5.60559 4.97414 5.61939 5.24994L6.40935 21.029C6.43584 21.5344 6.85756 21.9349 7.36002 21.9349H16.58C17.0873 21.9349 17.5047 21.54 17.5307 21.039L18.3807 5.24806C18.3956 4.97232 18.6312 4.76082 18.9069 4.77566Z" fill="#EE424E"/>
<path fill-rule="evenodd" clip-rule="evenodd" d="M2.27002 5.27494C2.27002 4.9988 2.49388 4.77494 2.77002 4.77494H21.23C21.5062 4.77494 21.73 4.9988 21.73 5.27494C21.73 5.55108 21.5062 5.77494 21.23 5.77494H2.77002C2.49388 5.77494 2.27002 5.55108 2.27002 5.27494Z" fill="#EE424E"/>
<path fill-rule="evenodd" clip-rule="evenodd" d="M7.84002 3.38494C7.84002 2.09701 8.88567 1.06494 10.16 1.06494H13.96C15.2479 1.06494 16.28 2.11059 16.28 3.38494V5.27494C16.28 5.55108 16.0562 5.77494 15.78 5.77494C15.5039 5.77494 15.28 5.55108 15.28 5.27494V3.38494C15.28 2.65929 14.6921 2.06494 13.96 2.06494H10.16C9.43437 2.06494 8.84002 2.65287 8.84002 3.38494V5.27494C8.84002 5.55108 8.61616 5.77494 8.34002 5.77494C8.06388 5.77494 7.84002 5.55108 7.84002 5.27494V3.38494Z" fill="#EE424E"/>
<path fill-rule="evenodd" clip-rule="evenodd" d="M8.78688 7.57511C9.06293 7.56786 9.29259 7.78575 9.29985 8.0618L9.59985 19.4718C9.6071 19.7478 9.38921 19.9775 9.11316 19.9848C8.83711 19.992 8.60745 19.7741 8.60019 19.4981L8.30019 8.08808C8.29293 7.81204 8.51083 7.58237 8.78688 7.57511Z" fill="#EE424E"/>
<path fill-rule="evenodd" clip-rule="evenodd" d="M12 7.57494C12.2762 7.57494 12.5 7.7988 12.5 8.07494V19.4849C12.5 19.7611 12.2762 19.9849 12 19.9849C11.7239 19.9849 11.5 19.7611 11.5 19.4849V8.07494C11.5 7.7988 11.7239 7.57494 12 7.57494Z" fill="#EE424E"/>
<path fill-rule="evenodd" clip-rule="evenodd" d="M15.2036 7.57513C15.4796 7.58263 15.6973 7.81248 15.6898 8.08852L15.3798 19.4985C15.3723 19.7746 15.1425 19.9923 14.8664 19.9848C14.5904 19.9773 14.3727 19.7474 14.3802 19.4714L14.6902 8.06136C14.6977 7.78532 14.9276 7.56763 15.2036 7.57513Z" fill="#EE424E"/>
</g>
</g>
</svg>
