<svg width="24" height="24" viewBox="0 0 24 24" fill="none" xmlns="http://www.w3.org/2000/svg">
<g id="icon/ic_share_iOS">
<g id="Vector">
<path fill-rule="evenodd" clip-rule="evenodd" d="M2.73511 10.5588C3.01125 10.5588 3.23511 10.7826 3.23511 11.0588V19.7788C3.23511 20.2926 3.65125 20.7088 4.16511 20.7088H19.8351C20.349 20.7088 20.7651 20.2926 20.7651 19.7788V11.0588C20.7651 10.7826 20.989 10.5588 21.2651 10.5588C21.5413 10.5588 21.7651 10.7826 21.7651 11.0588V19.7788C21.7651 20.8449 20.9013 21.7088 19.8351 21.7088H4.16511C3.09896 21.7088 2.23511 20.8449 2.23511 19.7788V11.0588C2.23511 10.7826 2.45897 10.5588 2.73511 10.5588Z" fill="#121E6C"/>
<path fill-rule="evenodd" clip-rule="evenodd" d="M12.0051 2.49878C12.2812 2.49878 12.5051 2.72263 12.5051 2.99878V16.6788C12.5051 16.9549 12.2812 17.1788 12.0051 17.1788C11.729 17.1788 11.5051 16.9549 11.5051 16.6788V2.99878C11.5051 2.72263 11.729 2.49878 12.0051 2.49878Z" fill="#121E6C"/>
<path fill-rule="evenodd" clip-rule="evenodd" d="M12.0055 2.29126L16.6691 6.96563C16.8641 7.16112 16.8637 7.4777 16.6683 7.67274C16.4728 7.86778 16.1562 7.86741 15.9611 7.67192L12.0047 3.70629L8.03866 7.67233C7.8434 7.86759 7.52682 7.86759 7.33155 7.67233C7.13629 7.47707 7.13629 7.16049 7.33155 6.96522L12.0055 2.29126Z" fill="#121E6C"/>
</g>
</g>
</svg>
